<svg xmlns="http://www.w3.org/2000/svg" viewBox="0 0 64 64" role="img" aria-label="GuidaPlate">
  <!-- outer brand ring -->
  <circle cx="32" cy="32" r="32" fill="#2E86AB"/>
  <!-- plate rim -->
  <circle cx="32" cy="32" r="26" fill="#FFFFFF"/>
  <!-- plate face -->
  <circle cx="32" cy="32" r="21" fill="#1A5F7A"/>
  <!-- fork -->
  <g fill="#FFFFFF">
    <rect x="22.2" y="18" width="2.2" height="10" rx="1.1"/>
    <rect x="25.4" y="18" width="2.2" height="10" rx="1.1"/>
    <rect x="28.6" y="18" width="2.2" height="10" rx="1.1"/>
    <rect x="24.3" y="26.5" width="4.4" height="19" rx="2.2"/>
  </g>
  <!-- leaf -->
  <path
    d="M41.5 22c5.8 2.4 9.2 7.2 9 12.4-0.2 4.8-3.6 8.6-9.5 11.2 0.4-4.2-0.6-8.2-3.2-11.6-2.2-2.9-1.8-7.2 3.7-12z"
    fill="#FFFFFF"
  />
  <path
    d="M41.2 24.5c1.8 3.4 2.4 7 1.8 10.6"
    fill="none"
    stroke="#1A5F7A"
    stroke-width="1.4"
    stroke-linecap="round"
    opacity="0.45"
  />
</svg>
